{
    "asset" : {
        "generator" : "Khronos glTF Blender I/O v1.0.5",
        "version" : "2.0"
    },
    "scene" : 0,
    "scenes" : [
        {
            "name" : "Scene",
            "nodes" : [
                0
            ]
        }
    ],
    "nodes" : [
        {
            "mesh" : 0,
            "name" : "Sphere",
            "rotation" : [
                0.7071067690849304,
                0,
                0,
                0.7071067690849304
            ],
            "translation" : [
                0,
                1.3585224151611328,
                0
            ]
        }
    ],
    "materials" : [
        {
            "doubleSided" : true,
            "name" : "mtl.002",
            "pbrMetallicRoughness" : {
                "baseColorFactor" : [
                    1,
                    1,
                    1,
                    1
                ],
                "metallicFactor" : 0,
                "roughnessFactor" : 0.30000001192092896
            }
        },
        {
            "doubleSided" : true,
            "name" : "mtl.003",
            "pbrMetallicRoughness" : {
                "baseColorFactor" : [
                    0.814041793346405,
                    0.4570219814777374,
                    0.4570219814777374,
                    1
                ],
                "metallicFactor" : 0,
                "roughnessFactor" : 0.5
            }
        },
        {
            "doubleSided" : true,
            "name" : "mtl.001",
            "pbrMetallicRoughness" : {
                "baseColorFactor" : [
                    0,
                    0,
                    0,
                    1
                ],
                "metallicFactor" : 0,
                "roughnessFactor" : 0
            }
        },
        {
            "doubleSided" : true,
            "name" : "mtl.000",
            "pbrMetallicRoughness" : {
                "baseColorFactor" : [
                    0.8006559014320374,
                    0,
                    0,
                    1
                ],
                "metallicFactor" : 0,
                "roughnessFactor" : 0.20000000298023224
            }
        }
    ],
    "meshes" : [
        {
            "name" : "Sphere",
            "primitives" : [
                {
                    "attributes" : {
                        "POSITION" : 0,
                        "NORMAL" : 1,
                        "TEXCOORD_0" : 2
                    },
                    "indices" : 3,
                    "material" : 0
                },
                {
                    "attributes" : {
                        "POSITION" : 4,
                        "NORMAL" : 5,
                        "TEXCOORD_0" : 6
                    },
                    "indices" : 7,
                    "material" : 1
                },
                {
                    "attributes" : {
                        "POSITION" : 8,
                        "NORMAL" : 9,
                        "TEXCOORD_0" : 10
                    },
                    "indices" : 11,
                    "material" : 2
                },
                {
                    "attributes" : {
                        "POSITION" : 12,
                        "NORMAL" : 13,
                        "TEXCOORD_0" : 14
                    },
                    "indices" : 15,
                    "material" : 3
                }
            ]
        }
    ],
    "accessors" : [
        {
            "bufferView" : 0,
            "componentType" : 5126,
            "count" : 2217,
            "max" : [
                1.1744612455368042,
                0.9031529426574707,
                1.0768241882324219
            ],
            "min" : [
                -1.1744612455368042,
                -1,
                -1.111727237701416
            ],
            "type" : "VEC3"
        },
        {
            "bufferView" : 1,
            "componentType" : 5126,
            "count" : 2217,
            "type" : "VEC3"
        },
        {
            "bufferView" : 2,
            "componentType" : 5126,
            "count" : 2217,
            "type" : "VEC2"
        },
        {
            "bufferView" : 3,
            "componentType" : 5123,
            "count" : 10470,
            "type" : "SCALAR"
        },
        {
            "bufferView" : 4,
            "componentType" : 5126,
            "count" : 162,
            "max" : [
                0.9927443265914917,
                0.8381716012954712,
                1.0768241882324219
            ],
            "min" : [
                -0.9927442073822021,
                0.06754609197378159,
                -0.9807535409927368
            ],
            "type" : "VEC3"
        },
        {
            "bufferView" : 5,
            "componentType" : 5126,
            "count" : 162,
            "type" : "VEC3"
        },
        {
            "bufferView" : 6,
            "componentType" : 5126,
            "count" : 162,
            "type" : "VEC2"
        },
        {
            "bufferView" : 7,
            "componentType" : 5123,
            "count" : 450,
            "type" : "SCALAR"
        },
        {
            "bufferView" : 8,
            "componentType" : 5126,
            "count" : 236,
            "max" : [
                0.8314697742462158,
                1,
                0.831469714641571
            ],
            "min" : [
                -0.8314692378044128,
                0.5555701851844788,
                -0.8314696550369263
            ],
            "type" : "VEC3"
        },
        {
            "bufferView" : 9,
            "componentType" : 5126,
            "count" : 236,
            "type" : "VEC3"
        },
        {
            "bufferView" : 10,
            "componentType" : 5126,
            "count" : 236,
            "type" : "VEC2"
        },
        {
            "bufferView" : 11,
            "componentType" : 5123,
            "count" : 810,
            "type" : "SCALAR"
        },
        {
            "bufferView" : 12,
            "componentType" : 5126,
            "count" : 66,
            "max" : [
                0.3826836943626404,
                0.9807852506637573,
                0.3826838433742523
            ],
            "min" : [
                -0.3826833665370941,
                0.9238795042037964,
                -0.3826834559440613
            ],
            "type" : "VEC3"
        },
        {
            "bufferView" : 13,
            "componentType" : 5126,
            "count" : 66,
            "type" : "VEC3"
        },
        {
            "bufferView" : 14,
            "componentType" : 5126,
            "count" : 66,
            "type" : "VEC2"
        },
        {
            "bufferView" : 15,
            "componentType" : 5123,
            "count" : 192,
            "type" : "SCALAR"
        }
    ],
    "bufferViews" : [
        {
            "buffer" : 0,
            "byteLength" : 26604,
            "byteOffset" : 0
        },
        {
            "buffer" : 0,
            "byteLength" : 26604,
            "byteOffset" : 26604
        },
        {
            "buffer" : 0,
            "byteLength" : 17736,
            "byteOffset" : 53208
        },
        {
            "buffer" : 0,
            "byteLength" : 20940,
            "byteOffset" : 70944
        },
        {
            "buffer" : 0,
            "byteLength" : 1944,
            "byteOffset" : 91884
        },
        {
            "buffer" : 0,
            "byteLength" : 1944,
            "byteOffset" : 93828
        },
        {
            "buffer" : 0,
            "byteLength" : 1296,
            "byteOffset" : 95772
        },
        {
            "buffer" : 0,
            "byteLength" : 900,
            "byteOffset" : 97068
        },
        {
            "buffer" : 0,
            "byteLength" : 2832,
            "byteOffset" : 97968
        },
        {
            "buffer" : 0,
            "byteLength" : 2832,
            "byteOffset" : 100800
        },
        {
            "buffer" : 0,
            "byteLength" : 1888,
            "byteOffset" : 103632
        },
        {
            "buffer" : 0,
            "byteLength" : 1620,
            "byteOffset" : 105520
        },
        {
            "buffer" : 0,
            "byteLength" : 792,
            "byteOffset" : 107140
        },
        {
            "buffer" : 0,
            "byteLength" : 792,
            "byteOffset" : 107932
        },
        {
            "buffer" : 0,
            "byteLength" : 528,
            "byteOffset" : 108724
        },
        {
            "buffer" : 0,
            "byteLength" : 384,
            "byteOffset" : 109252
        }
    ],
    "buffers" : [
        {
            "byteLength" : 109636,
            "uri" : "data:application/octet-stream;base64,"
        }
    ]
}
